<svg width="88" height="30" viewBox="0 0 88 30" fill="none" xmlns="http://www.w3.org/2000/svg">
<path fill-rule="evenodd" clip-rule="evenodd" d="M45.8959 11.6376C45.8959 7.36971 42.3948 3.87891 38.1169 3.87891C33.8375 3.87891 30.3364 7.36971 30.3364 11.6376C30.3364 15.9048 33.8375 19.3956 38.1169 19.3956H45.8959V11.6376ZM49.7859 30H45.896V23.2754H38.1171C31.6769 23.2754 26.4467 18.0601 26.4467 11.6381C26.4467 5.21453 31.6769 0 38.1171 0C41.0981 0 43.8215 1.12 45.896 2.97376V0.862251H49.7859V30ZM19.4491 11.6376C19.4491 7.36971 15.9481 3.87891 11.6694 3.87891C7.39068 3.87891 3.88965 7.36971 3.88965 11.6376C3.88965 15.9048 7.39068 19.3956 11.6694 19.3956H19.4491V11.6376ZM23.34 23.2754H11.6696C5.23021 23.2754 0 18.0601 0 11.6381C0 5.21453 5.23021 0 11.6696 0C14.6514 0 17.3748 1.12 19.4493 2.97376V0.862251H23.34V23.2754ZM80.9134 0.861328H54.0391V23.2752H57.9289V4.74456H68.9831V23.2752H72.8729V4.74069H80.8118C82.6341 4.74069 84.1102 6.21286 84.1102 8.02947V23.2752H88.0001V7.92885C88.0001 4.0255 84.8273 0.861328 80.9134 0.861328Z" fill="#E1F1E3"/>
</svg>
