<svg width="124" height="15" viewBox="0 0 124 15" fill="none" xmlns="http://www.w3.org/2000/svg">
<path fill-rule="evenodd" clip-rule="evenodd" d="M114.13 5.2167H121.926C121.812 3.44042 120.026 1.95703 118.028 1.95703C116.03 1.95703 114.441 3.37485 114.13 5.2167ZM123.374 11.6506H118.028C114.69 11.6506 111.979 9.04955 111.979 5.83797C111.979 2.62639 114.69 0.0195312 118.028 0.0195312C119.573 0.0195312 120.987 0.579081 122.062 1.50583C122.062 1.50583 124.373 3.218 123.948 6.86235H114.272C114.744 8.50166 115.891 9.79416 118.795 9.79416H123.393V11.6302L123.374 11.6506ZM23.7942 5.81841C23.7942 3.68513 21.9803 1.93945 19.7619 1.93945C17.5434 1.93945 15.728 3.68513 15.728 5.81841C15.728 7.95169 17.5434 9.69737 19.7619 9.69737H23.7942V5.81841ZM25.8107 15H23.7938V11.6369H19.7615C16.4229 11.6369 13.7123 9.03002 13.7123 5.81844C13.7123 2.60686 16.4229 0 19.7615 0C21.3066 0 22.7189 0.561006 23.7938 1.4863V0.431319H25.8107V15ZM82.7644 5.81841C82.7644 3.68513 80.9505 1.93945 78.7321 1.93945C76.5136 1.93945 74.6982 3.68513 74.6982 5.81841C74.6982 7.95169 76.5136 9.69737 78.7321 9.69737H82.7644V5.81841ZM84.7811 11.6369H78.7319C75.3917 11.6369 72.6827 9.03002 72.6827 5.81844C72.6827 2.60686 75.3917 0 78.7319 0C80.277 0 81.6878 0.561006 82.7642 1.4863V0.431319H84.7811V11.6369ZM49.4045 5.81841C49.4045 3.68513 47.5907 1.93945 45.3722 1.93945C43.1538 1.93945 41.3384 3.68513 41.3384 5.81841C41.3384 7.95169 43.1538 9.69737 45.3722 9.69737H49.4045V5.81841ZM51.4216 11.6369H45.3724C42.0353 11.6369 39.3232 9.03002 39.3232 5.81844C39.3232 2.60686 42.0353 0 45.3724 0C46.9191 0 48.3298 0.561006 49.4047 1.4863V0.431319H51.4216V11.6369ZM10.0832 5.81841C10.0832 3.68513 8.26783 1.93945 6.04937 1.93945C3.83248 1.93945 2.01709 3.68513 2.01709 5.81841C2.01709 7.95169 3.83248 9.69737 6.04937 9.69737H10.0832V5.81841ZM12.1 11.6369H6.04921C2.71214 11.6369 0 9.03002 0 5.81844C0 2.60686 2.71214 0 6.04921 0C7.59744 0 9.00819 0.561006 10.0831 1.4863V0.431319H12.1V11.6369ZM35.6953 9.69772H31.5786C30.635 9.69772 29.8679 8.96185 29.8679 8.05404V0.431641H27.8525V8.10359C27.8525 10.0562 29.4976 11.6372 31.5271 11.6372H35.6953H37.7122V0.431641H35.6953V9.69772ZM67.3974 0.431641H53.4648V11.6372H55.4802V2.37403H61.2123V11.6372H63.2276V2.37112H67.3443C68.2879 2.37112 69.0534 3.10699 69.0534 4.01625V11.6372H71.0704V3.96525C71.0704 2.01412 69.4253 0.431641 67.3974 0.431641ZM106.856 0.431641H100.671V11.6372H102.688V2.37112H106.804C107.748 2.37112 108.514 3.10699 108.514 4.01625V11.6372H110.529V3.96525C110.529 2.01412 108.885 0.431641 106.856 0.431641ZM96.6123 11.6372H98.6292V0.431641H96.6123V11.6372ZM86.8228 0.431641L94.5686 0.433098V2.37403H88.8397V11.6372H86.8228V0.431641Z" fill="white"/>
</svg>
