<svg width="67" height="23" viewBox="0 0 67 23" fill="none" xmlns="http://www.w3.org/2000/svg">
<mask id="mask0_348_1963" style="mask-type:alpha" maskUnits="userSpaceOnUse" x="0" y="0" width="67" height="23">
<path fill-rule="evenodd" clip-rule="evenodd" d="M0 0H67V23H0V0Z" fill="white"/>
</mask>
<g mask="url(#mask0_348_1963)">
<path fill-rule="evenodd" clip-rule="evenodd" d="M34.9436 8.92296C34.9436 5.65089 32.278 2.97461 29.021 2.97461C25.7627 2.97461 23.0972 5.65089 23.0972 8.92296C23.0972 12.1944 25.7627 14.8707 29.021 14.8707H34.9436V8.92296ZM37.9052 23H34.9436V17.8444H29.021C24.1177 17.8444 20.1356 13.846 20.1356 8.92252C20.1356 3.99781 24.1177 0 29.021 0C31.2907 0 33.3641 0.858665 34.9436 2.27988V0.661059H37.9052V23ZM14.8078 8.92296C14.8078 5.65089 12.1423 2.97461 8.88463 2.97461C5.62698 2.97461 2.96143 5.65089 2.96143 8.92296C2.96143 12.1944 5.62698 14.8707 8.88463 14.8707H14.8078V8.92296ZM17.7702 17.8444H8.8848C3.98209 17.8444 0 13.846 0 8.92252C0 3.99781 3.98209 0 8.8848 0C11.155 0 13.2285 0.858665 14.808 2.27988V0.661059H17.7702V17.8444ZM61.6047 0.660156H41.1436V17.8441H44.1052V3.6373H52.5214V17.8441H55.483V3.63433H61.5273C62.9147 3.63433 64.0386 4.763 64.0386 6.15573V17.8441H67.0002V6.07859C67.0002 3.08602 64.5846 0.660156 61.6047 0.660156Z" fill="#E1F1E3"/>
</g>
</svg>
