<svg width="360" height="349" viewBox="0 0 360 349" fill="none" xmlns="http://www.w3.org/2000/svg">
<path fill-rule="evenodd" clip-rule="evenodd" d="M431.08 185.496V233.463L331.586 298.385V250.417L431.08 185.496ZM326.833 143.27V191.253L226.029 252.961V204.978L326.833 143.27ZM443.383 298.948V346.994L414.647 334.62V286.576L443.383 298.948ZM330.782 250.467V298.513L303.593 286.806V238.762L330.782 250.467ZM402.857 173.626L356.952 203.074L327.635 191.204V143.152L402.857 173.626ZM225.227 205.021V253.065L199.411 241.962V193.918L225.227 205.021ZM415.174 285.813L496.508 229.974C497.989 228.957 499.196 227.839 500.098 226.653C500.639 225.939 501.078 225.189 501.405 224.418C501.615 223.922 501.777 223.408 501.893 222.896C502.007 222.39 502.072 221.868 502.089 221.345C502.12 220.308 501.954 219.25 501.595 218.204C500.89 216.147 499.466 214.186 497.363 212.373C495.221 210.529 492.456 208.914 489.144 207.573L431.883 184.374V183.907L431.444 184.196L431.08 184.047V184.431L331.15 249.641L304.147 238.013L404.03 173.936L404.809 173.434L327.636 142.171V141.727L327.201 141.993L326.833 141.844V142.22L225.599 204.192L199.995 193.171L321.401 120.021L509.504 195.301C516.489 198.097 522.33 201.457 526.869 205.29C531.257 208.992 534.248 212.972 535.76 217.125C536.48 219.111 536.851 221.111 536.859 223.075L536.856 223.262C536.839 225.318 536.431 227.359 535.642 229.333C533.971 233.508 530.657 237.352 525.79 240.754L443.744 298.117L415.174 285.813ZM500.847 218.541C501.483 220.398 501.426 222.238 500.68 224.01C499.884 225.895 498.343 227.633 496.098 229.174L468.389 248.197L431.883 233.416V185.355L488.876 208.443C492.113 209.756 494.804 211.326 496.88 213.113C498.865 214.82 500.198 216.647 500.847 218.541ZM444.188 298.89L526.209 241.545C528.073 240.24 529.74 238.854 531.158 237.418C533.534 235.021 535.289 232.431 536.376 229.709C536.546 229.283 536.704 228.835 536.856 228.344V272.228C536.85 274.3 536.441 276.365 535.643 278.367C533.972 282.542 530.658 286.385 525.791 289.787L444.188 346.839V298.89ZM292.662 108.953V136.291L198.971 192.739L198.829 192.678L198.606 192.665V192.96L198.025 193.311L198.606 193.562V212.644L131.739 252.242V204.253L292.662 108.953ZM-69.6323 77.0795C-78.866 73.1053 -86.009 68.3642 -90.8629 62.9903C-91.4466 62.3424 -91.991 61.6945 -92.4846 61.0617C-96.0069 56.5397 -97.8009 51.7609 -97.8173 46.8611C-97.8353 41.3077 -95.5757 35.8262 -91.1039 30.5694C-86.4813 25.1332 -79.6859 20.1786 -70.9048 15.8436C-62.1744 11.5332 -51.9765 8.08031 -40.5962 5.58131C-29.6505 3.17676 -18.0456 1.74498 -6.0996 1.32376C-3.66285 1.23876 -1.21133 1.19531 1.18606 1.19531C10.5887 1.19531 19.8536 1.84698 28.7201 3.13331C40.3135 4.81631 50.8509 7.52876 60.0371 11.1951C64.3268 12.9064 68.264 14.8142 71.7404 16.8636C75.1397 18.8678 78.1455 21.0362 80.6741 23.3085C83.16 25.5412 85.218 27.9061 86.7905 30.3352C88.3451 32.7397 89.4437 35.235 90.0554 37.7491L90.1833 38.2723L101.8 32.1391L124.236 41.1151L0.602287 107.321L-69.6323 77.0795ZM-97.2025 54.4827L-97.1664 54.5734C-97.0024 54.9965 -96.8188 55.4385 -96.6171 55.8861C-96.5646 55.9995 -96.5121 56.1128 -96.4596 56.228C-96.2186 56.7456 -95.9907 57.197 -95.766 57.6069L-95.7316 57.673C-95.5069 58.081 -95.2577 58.5098 -94.9625 58.982C-94.892 59.0973 -94.8215 59.2106 -94.7477 59.322C-94.4197 59.8377 -94.1295 60.2665 -93.8376 60.6726L-93.8097 60.7122C-93.5096 61.124 -93.1866 61.5471 -92.8193 62.0042C-92.7307 62.1176 -92.6389 62.2309 -92.5454 62.3442C-92.1552 62.8221 -91.7911 63.2471 -91.4205 63.6589C-86.4863 69.1216 -79.2515 73.9307 -69.9145 77.9484L0.218422 108.144V156.188L-69.6324 126.115C-78.8662 122.139 -86.0108 117.398 -90.863 112.024C-95.461 106.931 -97.7994 101.493 -97.8174 95.8588V52.59C-97.8043 52.6335 -97.7928 52.6788 -97.7797 52.7241L-97.678 53.0679C-97.5108 53.6176 -97.3599 54.0634 -97.2025 54.4827ZM130.938 204.287V252.327L105.747 241.23V193.189L130.938 204.287ZM106.337 192.457L145.079 169.862L145.414 169.667L93.7763 147.435C92.7301 146.984 91.6806 146.511 90.5705 145.988C82.014 141.969 75.135 137.288 70.1254 132.08C67.3951 129.243 65.2469 126.266 63.735 123.227L63.7498 123.218L63.6678 123.051C62.9791 121.64 62.4199 120.207 62.0034 118.788L61.9673 118.684L61.9805 118.679L61.9329 118.503C61.864 118.254 61.7902 117.985 61.7181 117.704C61.6246 117.336 61.5459 116.992 61.4819 116.693L61.4787 116.454L61.4409 116.465C61.4328 116.414 61.4246 116.363 61.4147 116.314L61.3868 116.138C61.2753 115.492 61.2015 114.963 61.154 114.472L61.1392 114.283C61.113 113.977 61.0868 113.671 61.0704 113.367C61.0523 112.999 61.0425 112.623 61.0441 112.217C61.0441 111.552 61.072 110.889 61.1294 110.239C61.1835 109.61 61.2671 108.958 61.377 108.307L61.2179 108.271L61.3868 108.254C61.723 106.331 62.3084 104.397 63.1316 102.512L63.1693 102.425C63.4169 101.862 63.6957 101.286 64.0253 100.661L64.1499 100.423C64.4549 99.8559 64.7812 99.2873 65.1256 98.732C65.1568 98.681 65.1896 98.63 65.224 98.579L65.2847 98.4846C65.6782 97.8593 66.0521 97.304 66.4391 96.7657C70.6813 90.8686 77.2356 85.4947 85.92 80.7913C94.5569 76.1145 104.807 72.3669 116.384 69.6582C117.594 69.3749 118.813 69.1142 119.844 68.897C120.576 68.7421 121.32 68.591 122.073 68.4437C122.496 68.3606 122.922 68.2775 123.349 68.1962C124.013 68.0716 124.685 67.9469 125.366 67.826L125.7 67.7618C134.107 66.2847 142.903 65.3686 151.839 65.0399C164.213 64.5809 176.47 65.2401 188.278 66.9987C200.534 68.8233 211.798 71.7644 221.758 75.7405C226.425 77.6029 230.736 79.6731 234.572 81.8926C238.329 84.0648 241.7 86.4221 244.589 88.8947C247.431 91.3276 249.838 93.9002 251.744 96.5428C253.633 99.1627 255.055 101.883 255.966 104.625L256.127 105.105L267.524 98.46L292.042 108.271L131.315 203.46L106.337 192.457ZM61.042 118.395C61.0847 118.559 61.1322 118.725 61.1798 118.899L61.2487 119.148C61.4094 119.705 61.6045 120.287 61.8374 120.92C61.88 121.031 61.921 121.143 61.9636 121.254C62.1899 121.842 62.4375 122.427 62.7032 122.998L62.8409 123.283C63.1541 123.942 63.4558 124.528 63.7723 125.087L63.7969 125.132C64.115 125.689 64.4643 126.262 64.8644 126.876L65.0333 127.142C65.3974 127.69 65.7958 128.253 66.2206 128.817C66.3025 128.927 66.3845 129.037 66.4665 129.144C66.8929 129.703 67.3422 130.257 67.7948 130.791C67.8407 130.844 67.8882 130.899 67.9358 130.954L68.0342 131.067C68.5704 131.683 69.0705 132.234 69.5854 132.771C74.3835 137.759 80.8739 142.27 88.8761 146.182C90.4225 146.936 91.9754 147.65 93.4938 148.305L143.41 169.795L105.32 192.01L104.941 191.84V192.231L104.349 192.575L104.941 192.836V201.277L93.7759 196.47C83.7157 192.139 75.7577 186.973 70.1249 181.115C64.7792 175.56 61.7603 169.636 61.1535 163.509C61.0781 162.734 61.0404 161.958 61.042 161.201V118.395ZM1.02051 108.115L124.903 41.7773V66.9619C124.516 67.0318 124.132 67.1055 123.749 67.1791L123.165 67.2924C122.714 67.3774 122.271 67.4643 121.828 67.5512C121.128 67.6891 120.431 67.827 119.739 67.9743C118.432 68.2482 117.283 68.5013 116.225 68.7488C112.567 69.6045 108.885 70.6169 105.278 71.7578C97.9937 74.0584 91.3656 76.8162 85.5755 79.9518C76.7845 84.7118 70.1383 90.1707 65.8027 96.1962C65.419 96.7289 65.0336 97.3031 64.6253 97.9491L64.563 98.0492C64.5302 98.1002 64.4958 98.1512 64.4662 98.2022C64.1203 98.7576 63.7808 99.3469 63.4561 99.9551L63.3282 100.191C62.9921 100.833 62.7035 101.436 62.4395 102.029L62.4116 102.099C61.5523 104.063 60.9407 106.083 60.5881 108.123C60.3471 109.53 60.2306 110.939 60.2388 112.312V124.416L1.02051 156.127V108.115ZM536.5 216.765C534.932 212.457 531.852 208.343 527.348 204.54C522.74 200.651 516.827 197.247 509.767 194.425L321.503 119.079L321.337 119.011L293.465 135.805V108.473L294.085 108.107L293.465 107.859V107.429L293.029 107.686L267.629 97.5195L267.468 97.4553L256.553 103.815C255.607 101.139 254.199 98.4942 252.364 95.9499C250.417 93.2525 247.964 90.627 245.07 88.1506C242.143 85.646 238.732 83.2603 234.934 81.0635C231.068 78.8271 226.724 76.7418 222.024 74.8642C212.013 70.8692 200.695 67.9131 188.382 66.079C176.528 64.3148 164.222 63.6518 151.814 64.1126C142.89 64.4432 134.107 65.3555 125.705 66.8251V41.3478L126.376 40.9908L125.705 40.7206V40.324L125.284 40.5525L101.823 31.1648L101.761 31.1402L90.6984 36.9807C90.0376 34.5308 88.9406 32.1092 87.4352 29.7802C85.8184 27.2831 83.7112 24.8597 81.1695 22.576C78.595 20.2621 75.5466 18.0615 72.108 16.0367C68.5988 13.9683 64.6255 12.0435 60.3013 10.3171C51.0643 6.62999 40.4728 3.90432 28.8203 2.21188C17.6057 0.583655 5.84666 -0.0264561 -6.12393 0.394766C-18.106 0.817877 -29.7535 2.25532 -40.7435 4.66743C-52.1845 7.17965 -62.4382 10.6533 -71.2193 14.9902C-80.1005 19.3743 -86.9861 24.3969 -91.6792 29.9181C-96.3035 35.3562 -98.6385 41.0569 -98.6205 46.8595V95.8951C-98.6025 101.77 -96.1788 107.421 -91.4201 112.691C-86.4876 118.154 -79.2527 122.961 -69.9141 126.981L0.218842 157.176V157.581L0.636986 157.358L1.0207 157.524V157.15L60.239 125.441V161.198C60.2374 161.985 60.2751 162.796 60.3538 163.612C60.9852 169.97 64.0909 176.092 69.5859 181.802C75.2941 187.739 83.339 192.965 93.4943 197.336L104.942 202.264V241.868L130.938 253.321V253.761L131.364 253.508L131.74 253.674V253.283L198.608 213.684V242.603L225.227 254.054V254.505L225.656 254.239L226.028 254.401V254.01L327.267 192.034L356.016 203.675L303.157 237.584L302.789 237.426V237.822L302.233 238.176L302.789 238.416V287.449L330.783 299.502V299.976L331.22 299.691L331.586 299.85V299.451L431.509 234.249L467.488 248.818L414.208 285.396L413.844 285.239V285.647L413.319 286.004L413.844 286.231V335.263L443.383 347.982V348.485L443.826 348.175L444.185 348.33V347.922L526.208 290.577C531.213 287.079 534.632 283.099 536.372 278.753C537.221 276.633 537.652 274.437 537.659 272.229V223.416C537.697 221.213 537.305 218.977 536.5 216.765Z" fill="#5D9F93"/>
</svg>
